<svg width="599" height="399" viewBox="0 0 599 399" fill="none" xmlns="http://www.w3.org/2000/svg">
<rect width="599" height="399" fill="#553939"/>
<path d="M351.518 66.3184C351.518 66.1621 351.482 66.0176 351.412 65.8848C351.346 65.748 351.207 65.625 350.996 65.5156C350.789 65.4023 350.477 65.3047 350.059 65.2227C349.707 65.1484 349.389 65.0605 349.104 64.959C348.822 64.8574 348.582 64.7344 348.383 64.5898C348.188 64.4453 348.037 64.2754 347.932 64.0801C347.826 63.8848 347.773 63.6562 347.773 63.3945C347.773 63.1445 347.828 62.9082 347.938 62.6855C348.051 62.4629 348.209 62.2656 348.412 62.0938C348.619 61.9219 348.867 61.7871 349.156 61.6895C349.445 61.5918 349.768 61.543 350.123 61.543C350.631 61.543 351.064 61.6328 351.424 61.8125C351.783 61.9922 352.059 62.2324 352.25 62.5332C352.441 62.8301 352.537 63.1602 352.537 63.5234H351.453C351.453 63.3477 351.4 63.1777 351.295 63.0137C351.193 62.8457 351.043 62.707 350.844 62.5977C350.648 62.4883 350.408 62.4336 350.123 62.4336C349.822 62.4336 349.578 62.4805 349.391 62.5742C349.207 62.6641 349.072 62.7793 348.986 62.9199C348.904 63.0605 348.863 63.209 348.863 63.3652C348.863 63.4824 348.883 63.5879 348.922 63.6816C348.965 63.7715 349.039 63.8555 349.145 63.9336C349.25 64.0078 349.398 64.0781 349.59 64.1445C349.781 64.2109 350.025 64.2773 350.322 64.3438C350.842 64.4609 351.27 64.6016 351.605 64.7656C351.941 64.9297 352.191 65.1309 352.355 65.3691C352.52 65.6074 352.602 65.8965 352.602 66.2363C352.602 66.5137 352.543 66.7676 352.426 66.998C352.312 67.2285 352.146 67.4277 351.928 67.5957C351.713 67.7598 351.455 67.8887 351.154 67.9824C350.857 68.0723 350.523 68.1172 350.152 68.1172C349.594 68.1172 349.121 68.0176 348.734 67.8184C348.348 67.6191 348.055 67.3613 347.855 67.0449C347.656 66.7285 347.557 66.3945 347.557 66.043H348.646C348.662 66.3398 348.748 66.5762 348.904 66.752C349.061 66.9238 349.252 67.0469 349.479 67.1211C349.705 67.1914 349.93 67.2266 350.152 67.2266C350.449 67.2266 350.697 67.1875 350.896 67.1094C351.1 67.0312 351.254 66.9238 351.359 66.7871C351.465 66.6504 351.518 66.4941 351.518 66.3184ZM358.021 66.7695V59H359.111V68H358.115L358.021 66.7695ZM353.756 64.9004V64.7773C353.756 64.293 353.814 63.8535 353.932 63.459C354.053 63.0605 354.223 62.7188 354.441 62.4336C354.664 62.1484 354.928 61.9297 355.232 61.7773C355.541 61.6211 355.885 61.543 356.264 61.543C356.662 61.543 357.01 61.6133 357.307 61.7539C357.607 61.8906 357.861 62.0918 358.068 62.3574C358.279 62.6191 358.445 62.9355 358.566 63.3066C358.688 63.6777 358.771 64.0977 358.818 64.5664V65.1055C358.775 65.5703 358.691 65.9883 358.566 66.3594C358.445 66.7305 358.279 67.0469 358.068 67.3086C357.861 67.5703 357.607 67.7715 357.307 67.9121C357.006 68.0488 356.654 68.1172 356.252 68.1172C355.881 68.1172 355.541 68.0371 355.232 67.877C354.928 67.7168 354.664 67.4922 354.441 67.2031C354.223 66.9141 354.053 66.5742 353.932 66.1836C353.814 65.7891 353.756 65.3613 353.756 64.9004ZM354.846 64.7773V64.9004C354.846 65.2168 354.877 65.5137 354.939 65.791C355.006 66.0684 355.107 66.3125 355.244 66.5234C355.381 66.7344 355.555 66.9004 355.766 67.0215C355.977 67.1387 356.229 67.1973 356.521 67.1973C356.881 67.1973 357.176 67.1211 357.406 66.9688C357.641 66.8164 357.828 66.6152 357.969 66.3652C358.109 66.1152 358.219 65.8438 358.297 65.5508V64.1387C358.25 63.9238 358.182 63.7168 358.092 63.5176C358.006 63.3145 357.893 63.1348 357.752 62.9785C357.615 62.8184 357.445 62.6914 357.242 62.5977C357.043 62.5039 356.807 62.457 356.533 62.457C356.236 62.457 355.98 62.5195 355.766 62.6445C355.555 62.7656 355.381 62.9336 355.244 63.1484C355.107 63.3594 355.006 63.6055 354.939 63.8867C354.877 64.1641 354.846 64.4609 354.846 64.7773ZM362.416 68H361.332V60.9922C361.332 60.5352 361.414 60.1504 361.578 59.8379C361.746 59.5215 361.986 59.2832 362.299 59.123C362.611 58.959 362.982 58.877 363.412 58.877C363.537 58.877 363.662 58.8848 363.787 58.9004C363.916 58.916 364.041 58.9395 364.162 58.9707L364.104 59.8555C364.021 59.8359 363.928 59.8223 363.822 59.8145C363.721 59.8066 363.619 59.8027 363.518 59.8027C363.287 59.8027 363.088 59.8496 362.92 59.9434C362.756 60.0332 362.631 60.166 362.545 60.3418C362.459 60.5176 362.416 60.7344 362.416 60.9922V68ZM363.764 61.6602V62.4922H360.33V61.6602H363.764ZM368.662 66.3184C368.662 66.1621 368.627 66.0176 368.557 65.8848C368.49 65.748 368.352 65.625 368.141 65.5156C367.934 65.4023 367.621 65.3047 367.203 65.2227C366.852 65.1484 366.533 65.0605 366.248 64.959C365.967 64.8574 365.727 64.7344 365.527 64.5898C365.332 64.4453 365.182 64.2754 365.076 64.0801C364.971 63.8848 364.918 63.6562 364.918 63.3945C364.918 63.1445 364.973 62.9082 365.082 62.6855C365.195 62.4629 365.354 62.2656 365.557 62.0938C365.764 61.9219 366.012 61.7871 366.301 61.6895C366.59 61.5918 366.912 61.543 367.268 61.543C367.775 61.543 368.209 61.6328 368.568 61.8125C368.928 61.9922 369.203 62.2324 369.395 62.5332C369.586 62.8301 369.682 63.1602 369.682 63.5234H368.598C368.598 63.3477 368.545 63.1777 368.439 63.0137C368.338 62.8457 368.188 62.707 367.988 62.5977C367.793 62.4883 367.553 62.4336 367.268 62.4336C366.967 62.4336 366.723 62.4805 366.535 62.5742C366.352 62.6641 366.217 62.7793 366.131 62.9199C366.049 63.0605 366.008 63.209 366.008 63.3652C366.008 63.4824 366.027 63.5879 366.066 63.6816C366.109 63.7715 366.184 63.8555 366.289 63.9336C366.395 64.0078 366.543 64.0781 366.734 64.1445C366.926 64.2109 367.17 64.2773 367.467 64.3438C367.986 64.4609 368.414 64.6016 368.75 64.7656C369.086 64.9297 369.336 65.1309 369.5 65.3691C369.664 65.6074 369.746 65.8965 369.746 66.2363C369.746 66.5137 369.688 66.7676 369.57 66.998C369.457 67.2285 369.291 67.4277 369.072 67.5957C368.857 67.7598 368.6 67.8887 368.299 67.9824C368.002 68.0723 367.668 68.1172 367.297 68.1172C366.738 68.1172 366.266 68.0176 365.879 67.8184C365.492 67.6191 365.199 67.3613 365 67.0449C364.801 66.7285 364.701 66.3945 364.701 66.043H365.791C365.807 66.3398 365.893 66.5762 366.049 66.752C366.205 66.9238 366.396 67.0469 366.623 67.1211C366.85 67.1914 367.074 67.2266 367.297 67.2266C367.594 67.2266 367.842 67.1875 368.041 67.1094C368.244 67.0312 368.398 66.9238 368.504 66.7871C368.609 66.6504 368.662 66.4941 368.662 66.3184ZM375.166 66.7695V59H376.256V68H375.26L375.166 66.7695ZM370.9 64.9004V64.7773C370.9 64.293 370.959 63.8535 371.076 63.459C371.197 63.0605 371.367 62.7188 371.586 62.4336C371.809 62.1484 372.072 61.9297 372.377 61.7773C372.686 61.6211 373.029 61.543 373.408 61.543C373.807 61.543 374.154 61.6133 374.451 61.7539C374.752 61.8906 375.006 62.0918 375.213 62.3574C375.424 62.6191 375.59 62.9355 375.711 63.3066C375.832 63.6777 375.916 64.0977 375.963 64.5664V65.1055C375.92 65.5703 375.836 65.9883 375.711 66.3594C375.59 66.7305 375.424 67.0469 375.213 67.3086C375.006 67.5703 374.752 67.7715 374.451 67.9121C374.15 68.0488 373.799 68.1172 373.396 68.1172C373.025 68.1172 372.686 68.0371 372.377 67.877C372.072 67.7168 371.809 67.4922 371.586 67.2031C371.367 66.9141 371.197 66.5742 371.076 66.1836C370.959 65.7891 370.9 65.3613 370.9 64.9004ZM371.99 64.7773V64.9004C371.99 65.2168 372.021 65.5137 372.084 65.791C372.15 66.0684 372.252 66.3125 372.389 66.5234C372.525 66.7344 372.699 66.9004 372.91 67.0215C373.121 67.1387 373.373 67.1973 373.666 67.1973C374.025 67.1973 374.32 67.1211 374.551 66.9688C374.785 66.8164 374.973 66.6152 375.113 66.3652C375.254 66.1152 375.363 65.8438 375.441 65.5508V64.1387C375.395 63.9238 375.326 63.7168 375.236 63.5176C375.15 63.3145 375.037 63.1348 374.896 62.9785C374.76 62.8184 374.59 62.6914 374.387 62.5977C374.188 62.5039 373.951 62.457 373.678 62.457C373.381 62.457 373.125 62.5195 372.91 62.6445C372.699 62.7656 372.525 62.9336 372.389 63.1484C372.252 63.3594 372.15 63.6055 372.084 63.8867C372.021 64.1641 371.99 64.4609 371.99 64.7773ZM379.561 68H378.477V60.9922C378.477 60.5352 378.559 60.1504 378.723 59.8379C378.891 59.5215 379.131 59.2832 379.443 59.123C379.756 58.959 380.127 58.877 380.557 58.877C380.682 58.877 380.807 58.8848 380.932 58.9004C381.061 58.916 381.186 58.9395 381.307 58.9707L381.248 59.8555C381.166 59.8359 381.072 59.8223 380.967 59.8145C380.865 59.8066 380.764 59.8027 380.662 59.8027C380.432 59.8027 380.232 59.8496 380.064 59.9434C379.9 60.0332 379.775 60.166 379.689 60.3418C379.604 60.5176 379.561 60.7344 379.561 60.9922V68ZM380.908 61.6602V62.4922H377.475V61.6602H380.908ZM385.807 66.3184C385.807 66.1621 385.771 66.0176 385.701 65.8848C385.635 65.748 385.496 65.625 385.285 65.5156C385.078 65.4023 384.766 65.3047 384.348 65.2227C383.996 65.1484 383.678 65.0605 383.393 64.959C383.111 64.8574 382.871 64.7344 382.672 64.5898C382.477 64.4453 382.326 64.2754 382.221 64.0801C382.115 63.8848 382.062 63.6562 382.062 63.3945C382.062 63.1445 382.117 62.9082 382.227 62.6855C382.34 62.4629 382.498 62.2656 382.701 62.0938C382.908 61.9219 383.156 61.7871 383.445 61.6895C383.734 61.5918 384.057 61.543 384.412 61.543C384.92 61.543 385.354 61.6328 385.713 61.8125C386.072 61.9922 386.348 62.2324 386.539 62.5332C386.73 62.8301 386.826 63.1602 386.826 63.5234H385.742C385.742 63.3477 385.689 63.1777 385.584 63.0137C385.482 62.8457 385.332 62.707 385.133 62.5977C384.938 62.4883 384.697 62.4336 384.412 62.4336C384.111 62.4336 383.867 62.4805 383.68 62.5742C383.496 62.6641 383.361 62.7793 383.275 62.9199C383.193 63.0605 383.152 63.209 383.152 63.3652C383.152 63.4824 383.172 63.5879 383.211 63.6816C383.254 63.7715 383.328 63.8555 383.434 63.9336C383.539 64.0078 383.688 64.0781 383.879 64.1445C384.07 64.2109 384.314 64.2773 384.611 64.3438C385.131 64.4609 385.559 64.6016 385.895 64.7656C386.23 64.9297 386.48 65.1309 386.645 65.3691C386.809 65.6074 386.891 65.8965 386.891 66.2363C386.891 66.5137 386.832 66.7676 386.715 66.998C386.602 67.2285 386.436 67.4277 386.217 67.5957C386.002 67.7598 385.744 67.8887 385.443 67.9824C385.146 68.0723 384.812 68.1172 384.441 68.1172C383.883 68.1172 383.41 68.0176 383.023 67.8184C382.637 67.6191 382.344 67.3613 382.145 67.0449C381.945 66.7285 381.846 66.3945 381.846 66.043H382.936C382.951 66.3398 383.037 66.5762 383.193 66.752C383.35 66.9238 383.541 67.0469 383.768 67.1211C383.994 67.1914 384.219 67.2266 384.441 67.2266C384.738 67.2266 384.986 67.1875 385.186 67.1094C385.389 67.0312 385.543 66.9238 385.648 66.7871C385.754 66.6504 385.807 66.4941 385.807 66.3184ZM392.311 66.7695V59H393.4V68H392.404L392.311 66.7695ZM388.045 64.9004V64.7773C388.045 64.293 388.104 63.8535 388.221 63.459C388.342 63.0605 388.512 62.7188 388.73 62.4336C388.953 62.1484 389.217 61.9297 389.521 61.7773C389.83 61.6211 390.174 61.543 390.553 61.543C390.951 61.543 391.299 61.6133 391.596 61.7539C391.896 61.8906 392.15 62.0918 392.357 62.3574C392.568 62.6191 392.734 62.9355 392.855 63.3066C392.977 63.6777 393.061 64.0977 393.107 64.5664V65.1055C393.064 65.5703 392.98 65.9883 392.855 66.3594C392.734 66.7305 392.568 67.0469 392.357 67.3086C392.15 67.5703 391.896 67.7715 391.596 67.9121C391.295 68.0488 390.943 68.1172 390.541 68.1172C390.17 68.1172 389.83 68.0371 389.521 67.877C389.217 67.7168 388.953 67.4922 388.73 67.2031C388.512 66.9141 388.342 66.5742 388.221 66.1836C388.104 65.7891 388.045 65.3613 388.045 64.9004ZM389.135 64.7773V64.9004C389.135 65.2168 389.166 65.5137 389.229 65.791C389.295 66.0684 389.396 66.3125 389.533 66.5234C389.67 66.7344 389.844 66.9004 390.055 67.0215C390.266 67.1387 390.518 67.1973 390.811 67.1973C391.17 67.1973 391.465 67.1211 391.695 66.9688C391.93 66.8164 392.117 66.6152 392.258 66.3652C392.398 66.1152 392.508 65.8438 392.586 65.5508V64.1387C392.539 63.9238 392.471 63.7168 392.381 63.5176C392.295 63.3145 392.182 63.1348 392.041 62.9785C391.904 62.8184 391.734 62.6914 391.531 62.5977C391.332 62.5039 391.096 62.457 390.822 62.457C390.525 62.457 390.27 62.5195 390.055 62.6445C389.844 62.7656 389.67 62.9336 389.533 63.1484C389.396 63.3594 389.295 63.6055 389.229 63.8867C389.166 64.1641 389.135 64.4609 389.135 64.7773ZM396.705 68H395.621V60.9922C395.621 60.5352 395.703 60.1504 395.867 59.8379C396.035 59.5215 396.275 59.2832 396.588 59.123C396.9 58.959 397.271 58.877 397.701 58.877C397.826 58.877 397.951 58.8848 398.076 58.9004C398.205 58.916 398.33 58.9395 398.451 58.9707L398.393 59.8555C398.311 59.8359 398.217 59.8223 398.111 59.8145C398.01 59.8066 397.908 59.8027 397.807 59.8027C397.576 59.8027 397.377 59.8496 397.209 59.9434C397.045 60.0332 396.92 60.166 396.834 60.3418C396.748 60.5176 396.705 60.7344 396.705 60.9922V68ZM398.053 61.6602V62.4922H394.619V61.6602H398.053ZM400.877 68H399.793V60.9922C399.793 60.5352 399.875 60.1504 400.039 59.8379C400.207 59.5215 400.447 59.2832 400.76 59.123C401.072 58.959 401.443 58.877 401.873 58.877C401.998 58.877 402.123 58.8848 402.248 58.9004C402.377 58.916 402.502 58.9395 402.623 58.9707L402.564 59.8555C402.482 59.8359 402.389 59.8223 402.283 59.8145C402.182 59.8066 402.08 59.8027 401.979 59.8027C401.748 59.8027 401.549 59.8496 401.381 59.9434C401.217 60.0332 401.092 60.166 401.006 60.3418C400.92 60.5176 400.877 60.7344 400.877 60.9922V68ZM402.225 61.6602V62.4922H398.791V61.6602H402.225Z" fill="black"/>
<rect x="366" y="98" width="137" height="184" fill="#58DE29"/>
<rect x="76" y="56" width="178" height="275" fill="#E24545"/>
<rect width="151" height="41" transform="matrix(1 0 0 -1 90 316)" fill="#2E9C46"/>
<rect width="151" height="41" transform="matrix(1 0 0 -1 90 316)" fill="#2E9C46"/>
<rect width="151" height="41" transform="matrix(1 0 0 -1 90 316)" fill="#2E9C46"/>
<rect width="151" height="41" transform="matrix(1 0 0 -1 90 316)" fill="#2E9C46"/>
<rect width="151" height="41" transform="matrix(1 0 0 -1 90 255)" fill="#2E9C46"/>
<rect width="151" height="41" transform="matrix(1 0 0 -1 90 255)" fill="#2E9C46"/>
<rect width="151" height="41" transform="matrix(1 0 0 -1 90 255)" fill="#2E9C46"/>
<rect width="151" height="41" transform="matrix(1 0 0 -1 90 255)" fill="#2E9C46"/>
<rect width="151" height="41" transform="matrix(1 0 0 -1 90 194)" fill="#2E9C46"/>
<rect width="151" height="41" transform="matrix(1 0 0 -1 90 194)" fill="#2E9C46"/>
<rect width="151" height="41" transform="matrix(1 0 0 -1 90 194)" fill="#2E9C46"/>
<rect width="151" height="41" transform="matrix(1 0 0 -1 90 194)" fill="#2E9C46"/>
</svg>
